<?xml version="1.0" encoding="iso-8859-1"?>
<!-- Generator: Adobe Illustrator 18.1.1, SVG Export Plug-In . SVG Version: 6.00 Build 0)  -->
<svg version="1.1" id="Capa_1" xmlns="http://www.w3.org/2000/svg" xmlns:xlink="http://www.w3.org/1999/xlink" x="0px" y="0px"
	 viewBox="0 0 25.756 25.756" style="enable-background:new 0 0 25.756 25.756;" xml:space="preserve">
<g>
	<path style="fill:#010002;" d="M13.688,6.243V3.986h-1.619v2.242c-5.18,0.818-8.768,4.773-8.768,9.722
		c0,0.105,0.011,0.207,0.014,0.312H3.301v0.593h0.04c0.396,4.504,3.755,7.963,8.522,8.775c0,0,0.21,0.051,0.828,0.116
		c0.521,0.038,0.818-0.045,0.818-0.045c4.926-0.646,8.496-4.189,8.905-8.846h0.022v-0.467c0.004-0.146,0.018-0.29,0.018-0.438
		C22.455,10.977,18.817,7.02,13.688,6.243z M12.581,6.983v3.284c-1.218-0.001-2.332,0.135-3.33,0.348
		C10.483,8.722,11.999,7.439,12.581,6.983z M11.475,6.94c-0.909,0.851-2.17,2.164-3.143,3.897c-1.681,0.464-2.954,1.113-3.719,1.573
		C5.77,9.692,8.251,7.653,11.475,6.94z M3.893,15.95c0-0.914,0.139-1.789,0.386-2.617c0.388-0.28,1.683-1.144,3.68-1.776
		c-0.518,1.084-0.91,2.306-1.039,3.668c0,0.013-0.002,0.025-0.004,0.038c-0.03,0.325-0.049,0.655-0.047,0.996
		c0,0.001,0,0.001,0,0.002H3.906C3.904,16.157,3.893,16.055,3.893,15.95z M4.444,19.106c0.7,0.437,1.936,1.101,3.603,1.595
		c0.795,1.43,2.01,2.834,3.709,4.313C8.223,24.347,5.542,22.125,4.444,19.106z M12.582,24.871c-1.639-1.337-2.852-2.632-3.688-3.943
		c1.084,0.257,2.312,0.429,3.672,0.429c0.006,0,0.012,0,0.016,0V24.871z M12.583,20.761L12.583,20.761
		c-1.557,0.002-2.939-0.227-4.11-0.551c-0.576-1.089-0.9-2.196-0.986-3.355h5.096V20.761z M21.232,12.557
		c-1.498-0.792-2.934-1.343-4.291-1.704c-0.334-0.592-0.695-1.141-1.068-1.634c-0.699-0.96-1.435-1.759-2.051-2.362
		C17.364,7.452,20.067,9.589,21.232,12.557z M13.175,10.866c1.043,0.042,2.16,0.194,3.34,0.488c0.541,1.018,0.975,2.148,1.178,3.368
		c0.004,0.037,0.008,0.074,0.014,0.111c0.032,0.205,0.059,0.411,0.076,0.621c0.021,0.265,0.035,0.532,0.033,0.807h-4.641V10.866z
		 M13.174,16.854L13.174,16.854h4.616c-0.052,0.704-0.186,1.397-0.404,2.08c-0.02,0.053-0.033,0.107-0.053,0.159
		c-0.017,0.052-0.038,0.104-0.057,0.156c-0.116,0.312-0.263,0.62-0.422,0.928c-1.305,0.353-2.537,0.53-3.68,0.574
		C13.174,20.751,13.174,16.854,13.174,16.854z M13.176,24.539v-3.201c1.027-0.038,2.121-0.179,3.275-0.451
		C15.702,22.083,14.632,23.272,13.176,24.539z M13.746,25.061c1.605-1.428,2.779-2.888,3.551-4.395
		c1.287-0.37,2.643-0.915,4.053-1.671C20.241,22.164,17.418,24.473,13.746,25.061z M21.851,16.261h-3.442c0-0.002,0-0.006,0-0.009
		c0.008-1.763-0.443-3.329-1.091-4.678c1.329,0.397,2.731,0.983,4.194,1.809c0.229,0.808,0.354,1.667,0.354,2.567
		C21.865,16.055,21.854,16.157,21.851,16.261z M18.032,5.288l1.118-0.162l0.499-1.012l0.5,1.012l1.117,0.162l-0.809,0.788
		l0.19,1.113l-0.998-0.525l-0.998,0.525l0.189-1.113L18.032,5.288z M16.106,4.249l0.879-0.639l0.88,0.639l-0.336-1.034l0.88-0.639
		h-1.088l-0.336-1.034l-0.336,1.034h-1.087l0.88,0.639L16.106,4.249z M16.17,2.773h0.622l0.192-0.591l0.192,0.591h0.622
		l-0.504,0.365l0.192,0.591l-0.503-0.365l-0.5,0.366l0.191-0.591L16.17,2.773z M14.699,0.897l-0.31-0.226h0.384l0.119-0.366
		l0.118,0.366h0.383l-0.31,0.226l0.119,0.366l-0.31-0.226L14.58,1.263L14.699,0.897z M7.465,1.122L6.874,0.694h0.729L7.828,0
		l0.226,0.694h0.729L8.194,1.122L8.42,1.816L7.828,1.387L7.239,1.816L7.465,1.122z M8.571,2.929h0.843l0.26-0.802l0.261,0.802h0.843
		l-0.681,0.496l0.26,0.802L9.674,3.731L8.992,4.227l0.26-0.802L8.571,2.929z M5.993,5.475L5.605,5.193h0.481l0.148-0.458
		l0.149,0.458h0.48L6.474,5.475l0.149,0.457L6.234,5.649L5.845,5.932L5.993,5.475z M9.18,4.828L8.747,5.143l0.165,0.509L8.479,5.338
		L8.045,5.652l0.166-0.509L7.778,4.828h0.537l0.164-0.51l0.166,0.51H9.18z"/>
</g>
<g>
</g>
<g>
</g>
<g>
</g>
<g>
</g>
<g>
</g>
<g>
</g>
<g>
</g>
<g>
</g>
<g>
</g>
<g>
</g>
<g>
</g>
<g>
</g>
<g>
</g>
<g>
</g>
<g>
</g>
</svg>
